<svg width="512" height="512" xmlns="http://www.w3.org/2000/svg">
 <title>Drawing</title>

 <!--! Font Awesome Pro 6.2.1 by @fontawesome - https://fontawesome.com License - https://fontawesome.com/license (Commercial License) Copyright 2022 Fonticons, Inc. -->
 <g>
  <title>Layer 1</title>
  <rect x="50" y="50" width="412" height="412" id="svg_2" rx="100" fill="#9ACEE6" stroke="null"/>
  <path opacity="0.2" stroke="null" stroke-width="0" d="m284.8501,136.27251c-72.39236,0 -131.00967,58.79317 -131.00967,131.30278s58.61731,131.3028 131.00967,131.3028c35.52216,0 67.70306,-14.18542 91.32581,-37.16339c2.93091,-2.87219 3.69293,-7.32715 1.81717,-10.96149s-5.92038,-5.68585 -9.965,-4.98245c-5.74448,0.99649 -11.60623,1.52411 -17.6438,1.52411c-56.8002,0 -102.87338,-46.19049 -102.87338,-103.16649c0,-38.57018 21.10226,-72.1579 52.34531,-89.86035c3.57562,-2.05162 5.39276,-6.15483 4.51349,-10.14079s-4.27905,-6.97545 -8.38223,-7.32715c-3.69293,-0.29309 -7.38589,-0.46895 -11.13739,-0.46895l0,-0.05862l0.00003,0z" id="svg_6" fill="#1A333F"/>
  <path stroke="null" transform="rotate(-5 258.428 257.575)" stroke-width="0" d="m276.85013,126.27254c-72.39235,0 -131.00966,58.79317 -131.00966,131.30278s58.61731,131.3028 131.00966,131.3028c35.52216,0 67.70306,-14.18542 91.32581,-37.16339c2.93091,-2.87219 3.69293,-7.32715 1.81717,-10.96149s-5.92038,-5.68585 -9.965,-4.98245c-5.74448,0.99649 -11.60623,1.52411 -17.6438,1.52411c-56.8002,0 -102.87338,-46.19049 -102.87338,-103.16649c0,-38.57018 21.10226,-72.1579 52.34531,-89.86035c3.57562,-2.05162 5.39276,-6.15483 4.51349,-10.14079s-4.27905,-6.97546 -8.38223,-7.32716c-3.69293,-0.29309 -7.38589,-0.46894 -11.13739,-0.46894l0,-0.05862l0.00003,0z" id="svg_1" fill="#1A333F"/>
 </g>
</svg>